<svg xmlns="http://www.w3.org/2000/svg" xmlns:xlink="http://www.w3.org/1999/xlink" viewBox="0 0 729.42 513.5"><defs><style>.cls-1{filter:url(#luminosity-noclip);}.cls-2{filter:url(#luminosity-noclip-2);}.cls-3,.cls-34,.cls-4{fill:none;}.cls-10,.cls-19,.cls-24,.cls-27,.cls-28,.cls-29,.cls-30,.cls-31,.cls-34,.cls-35,.cls-36,.cls-37,.cls-4,.cls-40,.cls-41,.cls-42,.cls-5,.cls-7,.cls-8{stroke:#000;stroke-miterlimit:10;}.cls-10,.cls-19,.cls-24,.cls-29,.cls-37,.cls-4,.cls-42,.cls-5,.cls-7,.cls-8{stroke-width:4px;}.cls-42,.cls-5{fill:#fa7db0;}.cls-6{opacity:0.33;}.cls-26,.cls-7{fill:#01a9a0;}.cls-37,.cls-38,.cls-40,.cls-8{fill:#00e3dd;}.cls-9{opacity:0.2;}.cls-10,.cls-23{fill:#354e5a;}.cls-11{mask:url(#mask);}.cls-12{font-size:10.53px;}.cls-12,.cls-13,.cls-17,.cls-22,.cls-32{fill:#fff;}.cls-12,.cls-13{font-family:Montserrat-ExtraBold, Montserrat;font-weight:800;}.cls-13{font-size:5.5px;}.cls-14{mask:url(#mask-2);}.cls-15{fill:#00abff;}.cls-16{fill:#ff2781;}.cls-18{fill:#1b282d;opacity:0.57;}.cls-19,.cls-41{fill:#cddde8;}.cls-20{fill:#a3b2b9;}.cls-21{fill:#e6ecf3;}.cls-22{opacity:0.5;}.cls-24{fill:#cc658d;}.cls-25{fill:#4b606b;}.cls-27,.cls-31{fill:#f24461;}.cls-27,.cls-28,.cls-40{stroke-width:3px;}.cls-28,.cls-29,.cls-30{fill:#fdd666;}.cls-30,.cls-31,.cls-35,.cls-36,.cls-41{stroke-width:2px;}.cls-32{opacity:0.6;}.cls-33{clip-path:url(#clip-path);}.cls-35,.cls-36{fill:#acbac3;}.cls-36,.cls-37,.cls-40,.cls-42{stroke-linecap:round;}.cls-39{opacity:0.37;}.cls-43{opacity:0.15;}</style><filter id="luminosity-noclip" x="322.88" y="85.23" width="71.01" height="27.08" filterUnits="userSpaceOnUse" color-interpolation-filters="sRGB"><feFlood flood-color="#fff" result="bg"/><feBlend in="SourceGraphic" in2="bg"/></filter><mask id="mask" x="322.88" y="85.23" width="71.01" height="27.08" maskUnits="userSpaceOnUse"><rect class="cls-1" x="322.88" y="85.23" width="71.01" height="19.27"/></mask><filter id="luminosity-noclip-2" x="323.6" y="100.17" width="71.01" height="13.78" filterUnits="userSpaceOnUse" color-interpolation-filters="sRGB"><feFlood flood-color="#fff" result="bg"/><feBlend in="SourceGraphic" in2="bg"/></filter><mask id="mask-2" x="323.6" y="100.17" width="71.01" height="13.78" maskUnits="userSpaceOnUse"><rect class="cls-2" x="323.6" y="104.13" width="71.01" height="9.82"/></mask><clipPath id="clip-path"><ellipse class="cls-3" cx="363.11" cy="266.41" rx="25.97" ry="13.32"/></clipPath></defs><g id="Layer_2" data-name="Layer 2"><g id="Layer_2-2" data-name="Layer 2"><path class="cls-4" d="M628.85,499.51H560.16a9.9,9.9,0,0,1-9.9-9.9V473.45a9.91,9.91,0,0,0-9.91-9.9H471.67"/><rect class="cls-5" x="243.89" y="51.28" width="238.43" height="181.82" rx="1.35"/><path class="cls-6" d="M243.89,58.54V99c0,.5.29.88.67.88h10.65c.38,0,.67-.38.67-.88V58.54a9.3,9.3,0,0,0-1.76-5.6,5.34,5.34,0,0,0-4.24-2.32C246.57,50.62,243.89,54.16,243.89,58.54Z"/><path class="cls-6" d="M470.33,58.54V99c0,.5.3.88.67.88h10.66c.37,0,.66-.38.66-.88V58.54a9.23,9.23,0,0,0-1.76-5.6,5.32,5.32,0,0,0-4.23-2.32C473,50.62,470.33,54.16,470.33,58.54Z"/><rect class="cls-7" x="258.54" y="51.28" width="209.13" height="181.82" rx="1.35"/><rect class="cls-7" x="258.54" y="51.28" width="209.13" height="181.82" rx="1.8"/><rect class="cls-5" x="237.23" y="281.73" width="251.75" height="229.77" rx="1.35"/><rect class="cls-8" x="252.7" y="281.73" width="220.81" height="229.77" rx="1.35"/><rect class="cls-9" x="236.56" y="283.06" width="253.08" height="55.95" rx="9.44"/><path class="cls-10" d="M297.72,196.11a679.44,679.44,0,0,0,130.31,0,18.2,18.2,0,0,0,16.39-17.4q1.66-42.7,0-84.52a17.71,17.71,0,0,0-15.1-16.74c-43.42-6.52-87.67-6.28-132.7.2A17.66,17.66,0,0,0,281.4,93.88a643,643,0,0,0,0,85.35A18.15,18.15,0,0,0,297.72,196.11Z"/><path class="cls-10" d="M444.41,178.76A18.17,18.17,0,0,1,428,196.16a681.06,681.06,0,0,1-130.31,0,18.19,18.19,0,0,1-16.36-16.89q-1-15.61-1.28-31.08-.49-27.32,1.32-54.27A17.64,17.64,0,0,1,296.6,77.7c42.76-6.15,84.84-6.69,126.15-1.13,2.19.29,4.36.6,6.55.93a17.69,17.69,0,0,1,15.09,16.73Q446.13,136.05,444.41,178.76Z"/><g class="cls-11"><text class="cls-12" transform="translate(339.11 109.48)">ERROR</text></g><text class="cls-13" transform="translate(330.98 169.08)">PAGE NOT FOUND</text><g class="cls-14"><text class="cls-12" transform="translate(339.83 109.12)">ERROR</text></g><rect class="cls-15" x="328.18" y="96.82" width="3.79" height="3.79"/><rect class="cls-16" x="328.86" y="97.5" width="3.79" height="3.79"/><rect class="cls-15" x="384.65" y="176.07" width="3.79" height="3.79"/><rect class="cls-16" x="385.33" y="176.75" width="3.79" height="3.79"/><rect class="cls-15" x="404.76" y="99.05" width="3.79" height="3.79"/><rect class="cls-16" x="405.43" y="99.73" width="3.79" height="3.79"/><rect class="cls-15" x="302.72" y="158.05" width="3.79" height="3.79"/><rect class="cls-16" x="303.4" y="158.73" width="3.79" height="3.79"/><rect class="cls-15" x="401.25" y="159.95" width="3.79" height="3.79"/><rect class="cls-16" x="401.93" y="160.63" width="3.79" height="3.79"/><rect class="cls-15" x="391.23" y="109.55" width="4.51" height="4.51"/><rect class="cls-16" x="392.04" y="110.36" width="4.51" height="4.51"/><rect class="cls-15" x="341.05" y="172.69" width="4.51" height="4.51"/><rect class="cls-16" x="341.86" y="173.5" width="4.51" height="4.51"/><rect class="cls-15" x="358.21" y="85.29" width="4.51" height="4.51"/><rect class="cls-16" x="359.02" y="86.1" width="4.51" height="4.51"/><rect class="cls-15" x="373.51" y="93.92" width="2.02" height="2.02"/><rect class="cls-16" x="373.87" y="94.28" width="2.02" height="2.02"/><rect class="cls-15" x="367.69" y="181.68" width="2.02" height="2.02"/><rect class="cls-16" x="368.05" y="182.05" width="2.02" height="2.02"/><rect class="cls-15" x="317.67" y="173.75" width="2.02" height="2.02"/><rect class="cls-16" x="318.03" y="174.12" width="2.02" height="2.02"/><polygon class="cls-3" points="320.94 134.13 316.9 139.92 320.94 139.92 320.94 139.88 322.39 139.88 325.32 139.88 325.32 139.1 322.39 139.1 320.94 139.1 320.94 134.13"/><polygon class="cls-3" points="399.11 139.92 403.15 139.92 403.15 134.13 399.11 139.92"/><rect class="cls-3" x="312.14" y="143.82" width="0.78" height="0.78"/><rect class="cls-3" x="374.1" y="139.14" width="0.78" height="0.78"/><rect class="cls-3" x="370.47" y="130.06" width="0.78" height="0.78"/><rect class="cls-3" x="352.97" y="123.86" width="1.4" height="1.4"/><rect class="cls-3" x="389.47" y="140.23" width="1.4" height="1.4"/><polygon class="cls-15" points="320.88 119.93 319.43 119.93 318.54 121.17 319.99 121.17 320.88 119.93"/><polygon class="cls-15" points="320.94 139.1 322.39 139.1 322.39 134.1 320.95 134.1 320.94 134.13 320.94 139.1"/><rect class="cls-15" x="320.94" y="139.88" width="1.45" height="0.04"/><polygon class="cls-15" points="304.01 141.29 309.2 134.07 307.75 134.07 302.56 141.29 302.56 143.04 304.01 143.04 304.01 141.29"/><rect class="cls-15" x="302.56" y="144.61" width="1.45" height="2.99"/><rect class="cls-15" x="320.65" y="153.03" width="1.45" height="1.11"/><polygon class="cls-15" points="312.17 127.92 309.44 131.71 310.89 131.71 313.62 127.92 312.17 127.92"/><path class="cls-15" d="M345.9,139h4.83v-.78H344.4a23.58,23.58,0,0,0,.77,5.31h1.46A21.89,21.89,0,0,1,345.9,139Z"/><path class="cls-15" d="M346.27,132.1h-1.45a26.6,26.6,0,0,0-.45,4.94c0,.13,0,.25,0,.38h1.45V137A26.62,26.62,0,0,1,346.27,132.1Z"/><path class="cls-15" d="M364.77,144.61h3.53v-.79h-4.56a6.08,6.08,0,0,1-.38.72,4.79,4.79,0,0,1-2.44,2.14,4.1,4.1,0,0,0,.73.17A4.44,4.44,0,0,0,364.77,144.61Z"/><path class="cls-15" d="M345.62,144.92c.19.52.39,1,.62,1.52h1.45c-.23-.49-.43-1-.62-1.52Z"/><path class="cls-15" d="M348.35,147.72H346.9a13.74,13.74,0,0,0,4.76,5,14.65,14.65,0,0,0,7.82,2.1l.72,0a14.48,14.48,0,0,1-7.09-2.08A13.83,13.83,0,0,1,348.35,147.72Z"/><polygon class="cls-15" points="389.13 137.25 391.36 137.25 391.36 135.97 388.77 135.97 388.59 135.97 384.77 141.29 384.77 144.15 386.22 144.15 386.22 141.29 389.13 137.25"/><rect class="cls-15" x="402.85" y="147.59" width="1.45" height="0.03"/><rect class="cls-15" x="401.94" y="150.78" width="1.45" height="3.36"/><polygon class="cls-15" points="403.15 139.92 404.6 139.92 404.6 134.1 403.16 134.1 403.15 134.13 403.15 139.92"/><polygon class="cls-15" points="396.51 124.95 392.48 130.55 393.94 130.55 397.96 124.95 396.51 124.95"/><polygon class="cls-16" points="315.45 139.92 316.9 139.92 320.94 134.13 320.95 134.1 322.35 132.1 320.9 132.1 315.45 139.92"/><rect class="cls-16" x="331.53" y="136.64" width="1.45" height="3.28"/><rect class="cls-16" x="331.53" y="147.59" width="1.45" height="6.55"/><polygon class="cls-16" points="338.07 139.92 336.62 139.92 336.62 142.55 334.71 142.55 334.71 143.82 336.62 143.82 336.62 147.59 338.07 147.59 338.07 147.08 339.58 147.08 339.58 146.3 338.07 146.3 338.07 139.92"/><rect class="cls-16" x="331.53" y="134.1" width="1.45" height="1.1"/><polygon class="cls-16" points="331.49 121.17 332.35 119.93 330.9 119.93 330.04 121.17 331.49 121.17"/><polygon class="cls-16" points="321.99 130.54 323.44 130.54 328.88 122.73 327.43 122.73 321.99 130.54"/><path class="cls-16" d="M361.65,154.81l.73,0a14.55,14.55,0,0,0,7.77-2.1,13.43,13.43,0,0,0,2-1.56h-1.45a13.43,13.43,0,0,1-2,1.56A14.42,14.42,0,0,1,361.65,154.81Z"/><path class="cls-16" d="M355.86,132.89a24,24,0,0,0-.3,3.64H357a24,24,0,0,1,.3-3.64h-1.45Z"/><path class="cls-16" d="M375.5,146.59a18.26,18.26,0,0,0,1.4-4.17h-1.45a18.76,18.76,0,0,1-1.4,4.17,15.17,15.17,0,0,1-2.53,3.8h6.34v-.79h-4.22A15.76,15.76,0,0,0,375.5,146.59Z"/><path class="cls-16" d="M360.93,146.91a4.2,4.2,0,0,0,.72-.06,4.1,4.1,0,0,1-.73-.17,4.73,4.73,0,0,1-2.47-2.14,12.58,12.58,0,0,1-1.4-5.82h1.41v-.78h-2.89a13.71,13.71,0,0,0,1.42,6.6A4.44,4.44,0,0,0,360.93,146.91Z"/><rect class="cls-16" x="413.74" y="134.1" width="1.45" height="5.82"/><rect class="cls-16" x="413.74" y="147.59" width="1.45" height="2.4"/><polygon class="cls-16" points="407.35 128.09 413.04 119.93 411.59 119.93 405.9 128.09 407.35 128.09"/><rect class="cls-16" x="412.83" y="151.56" width="1.45" height="2.58"/><rect class="cls-16" x="418.82" y="142.5" width="1.45" height="5.09"/><polygon class="cls-16" points="397.66 139.92 399.11 139.92 403.15 134.13 403.16 134.1 405.7 130.46 404.25 130.46 397.66 139.92"/><polygon class="cls-17" points="330.04 121.17 330.9 119.93 329.45 119.93 322.33 119.93 320.88 119.93 319.99 121.17 330.04 121.17"/><path class="cls-17" d="M334.71,143.82v-1.27h1.91v-2.63h-5.09v-3.28h4.09v-.78h-5.89v-.65h1.8V134.1h-9.14v5h2.93v.78h-2.93v0h-6.94l5.45-7.82H324v-.78h-3.42v-.78H322l5.44-7.81h4.4V122H317.91l-3.17,4.41h4.12v.78h-7.79v.79h2.55l-2.72,3.78h1.42v1.18h-6.85v1.18h3.73L304,141.29V143h-4.66v.78h10.9v.79H304v3H322.1v3.87h1.32v.79h3V153H322.1v1.11h9.43v-6.55h5.09v-3.77Zm-21.78.79h-.79v-.79h.79Zm14.31,2.47h-.79v-.78h.79Z"/><path class="cls-17" d="M375.45,142.42H362.83v1.4h5.47v.79h-3.53a4.44,4.44,0,0,1-3.12,2.24,4.2,4.2,0,0,1-.72.06,4.44,4.44,0,0,1-3.94-2.37,13.71,13.71,0,0,1-1.42-6.6h-.49v-1.41h.48a24,24,0,0,1,.3-3.64h5.92v-.79H350.59v.79h-.91v-.79h-3.41a26.62,26.62,0,0,0-.44,4.94v.38h2.1v.78h2.8V139H345.9a21.89,21.89,0,0,0,.73,4.53h-4.05v1.41h4.49c.19.52.39,1,.62,1.52h2v1.28h-1.33a13.83,13.83,0,0,0,4.76,5,14.48,14.48,0,0,0,7.09,2.08l.73,0,.72,0a14.42,14.42,0,0,0,7.05-2.08,13.43,13.43,0,0,0,2-1.56H359.18v-.78h12.34a15.17,15.17,0,0,0,2.53-3.8A18.76,18.76,0,0,0,375.45,142.42Z"/><polygon class="cls-17" points="403.39 150.78 403.39 154.14 404.84 154.14 411.38 154.14 412.83 154.14 412.83 151.56 414.28 151.56 415.83 151.56 415.83 150.78 404.62 150.78 403.39 150.78"/><path class="cls-17" d="M417.37,139.92h-3.63V134.1H404.6v5.82h-6.94l6.59-9.46h5.33v-1.18h-8.51V128.1h4.83l5.69-8.17h-10l-2,2.84h3.06v.78h-9.81V125H398l-4,5.6h.74v.75h2.25v.79h-4.09L391,134.7h6.6V136h-6.2v1.28h-2.24l-2.9,4v2.86h8.14v.78h-5.49v.75h-2.65v1.91h18.09v0h.51v.79h2.76v.78h-3.27V150h9.43v-2.41h5.08V142.5H407v-.78h11.83v-1.8Zm-11.11-18.75H407V122h-.78Zm-15.39,20.47h-1.4v-1.41h1.4Zm8.75,4h-.79v-.78h.79Zm8.17.06h1.41v1.41h-1.41Z"/><polygon class="cls-15" points="396.92 132.09 396.92 131.31 394.67 131.31 394.67 131.34 392.82 131.34 391.92 131.34 389.51 134.7 390.96 134.7 392.83 132.09 396.92 132.09"/><polygon class="cls-15" points="402.59 123.55 402.59 122.77 399.53 122.77 401.57 119.93 400.12 119.93 397.51 123.55 398.5 123.55 402.59 123.55"/><polygon class="cls-15" points="316.68 127.14 318.86 127.14 318.86 126.36 314.74 126.36 317.91 121.95 316.46 121.95 313.29 126.36 313.26 126.36 313.26 126.4 312.73 127.14 313.26 127.14 316.68 127.14"/><polygon class="cls-15" points="322.1 151.46 322.1 147.59 320.65 147.59 320.65 151.46 317.82 151.46 317.82 152.25 323.42 152.25 323.42 151.46 322.1 151.46"/><polygon class="cls-16" points="420.27 140.94 420.27 139.92 418.82 139.92 418.82 141.72 419.12 141.72 422.98 141.72 423.71 141.72 423.71 140.94 420.27 140.94"/><rect class="cls-16" x="334.32" y="152.25" width="0.78" height="0.78"/><rect class="cls-16" x="406.26" y="121.17" width="0.78" height="0.78"/><rect class="cls-15" x="310.68" y="123.78" width="0.78" height="0.78"/><rect class="cls-15" x="326.45" y="146.3" width="0.78" height="0.78"/><rect class="cls-15" x="398.83" y="144.9" width="0.78" height="0.78"/><rect class="cls-17" x="333.12" y="121.95" width="0.78" height="0.78"/><rect class="cls-17" x="389.08" y="127.7" width="0.78" height="0.78"/><rect class="cls-17" x="327.66" y="129.47" width="0.78" height="0.78"/><rect class="cls-17" x="300.1" y="135.6" width="0.78" height="0.78"/><rect class="cls-17" x="397.17" y="151.46" width="0.78" height="0.78"/><rect class="cls-17" x="417.13" y="150.78" width="0.78" height="0.78"/><path class="cls-15" d="M350,125.26H348.5a16.49,16.49,0,0,0-1.28,2.22,18.48,18.48,0,0,0-1.32,3.84h1.45a18.48,18.48,0,0,1,1.32-3.84A16.49,16.49,0,0,1,350,125.26Z"/><path class="cls-15" d="M354,121.35a14.41,14.41,0,0,1,7.09-2.08l-.72,0a14.65,14.65,0,0,0-7.82,2.1,13,13,0,0,0-3,2.51H351A13.21,13.21,0,0,1,354,121.35Z"/><path class="cls-15" d="M365.73,129.53a4.47,4.47,0,0,0-3.17-2.31,4.33,4.33,0,0,0-.73.18,4.74,4.74,0,0,1,2.45,2.13c1,1.58,1.44,4.09,1.44,7.51a24.73,24.73,0,0,1-.28,4h1.45a24.73,24.73,0,0,0,.28-4C367.17,133.62,366.69,131.11,365.73,129.53Z"/><path class="cls-16" d="M372.86,124.17h1.45a13.23,13.23,0,0,0-3.25-2.82,14.55,14.55,0,0,0-7.77-2.1l-.73,0a14.32,14.32,0,0,1,7.05,2.08A13.23,13.23,0,0,1,372.86,124.17Z"/><path class="cls-16" d="M361.84,127.16a4.35,4.35,0,0,0-3.77,2.12h-3.65v.78h3.2a9.2,9.2,0,0,0-.48,1.26h1.45a7.78,7.78,0,0,1,.77-1.79,4.7,4.7,0,0,1,2.47-2.13,4.33,4.33,0,0,1,.73-.18A4.2,4.2,0,0,0,361.84,127.16Z"/><path class="cls-16" d="M376.89,136.64c0,.13,0,.26,0,.4a28,28,0,0,1-.28,4h1.45a27.88,27.88,0,0,0,.27-3.63h3.21v-.75h-4.66Z"/><path class="cls-16" d="M375,127.48a21.22,21.22,0,0,1,1.9,8.38h1.45a21.22,21.22,0,0,0-1.9-8.38,17,17,0,0,0-1-1.74H374A17,17,0,0,1,375,127.48Z"/><path class="cls-17" d="M376.89,136.64h-2.4v-.78h2.38a21.22,21.22,0,0,0-1.9-8.38,17,17,0,0,0-1-1.74h7V125H367.17v-.78h5.69a13.23,13.23,0,0,0-3.25-2.82,14.32,14.32,0,0,0-7.05-2.08l-.72,0-.73,0a14.41,14.41,0,0,0-7.09,2.08,13.21,13.21,0,0,0-3,2.51h.48v1.4H350a16.49,16.49,0,0,0-1.28,2.22,18.48,18.48,0,0,0-1.32,3.84h9.79a9.2,9.2,0,0,1,.48-1.26h-3.2v-.78h3.65a4.35,4.35,0,0,1,3.77-2.12,4.2,4.2,0,0,1,.72.06,4.47,4.47,0,0,1,3.17,2.31c1,1.58,1.44,4.09,1.44,7.51a24.73,24.73,0,0,1-.28,4h9.73a28,28,0,0,0,.28-4C376.9,136.9,376.89,136.77,376.89,136.64Zm-22.51-11.38H353v-1.4h1.41Zm16.88,5.59h-.79v-.79h.79Zm3.62,9.07h-.78v-.78h.78Z"/><rect class="cls-16" x="379.38" y="131.4" width="1.4" height="1.4"/><rect class="cls-16" x="407.79" y="145.74" width="1.4" height="1.4"/><rect class="cls-16" x="412.63" y="122.2" width="1.14" height="1.14"/><polygon class="cls-15" points="388.87 145.68 388.87 144.93 384.77 144.93 384.77 145.68 384.77 147.59 386.22 147.59 386.22 145.68 388.87 145.68"/><polygon class="cls-15" points="407.58 149.19 407.58 148.41 404.82 148.41 403.49 148.41 402.85 148.41 402.85 150 404.31 150 404.31 149.19 407.58 149.19"/><polygon class="cls-15" points="339.87 126.31 339.87 125.95 337.85 125.95 337.85 127.97 338.21 127.97 338.21 126.31 339.87 126.31"/><polygon class="cls-16" points="338.21 126.31 338.21 127.97 338.21 128.33 340.23 128.33 340.23 126.31 339.87 126.31 338.21 126.31"/><rect class="cls-15" x="388.87" y="154.83" width="2.02" height="2.02"/><rect class="cls-16" x="389.23" y="155.19" width="2.02" height="2.02"/><rect class="cls-15" x="310.95" y="111.43" width="2.02" height="2.02"/><rect class="cls-16" x="311.31" y="111.79" width="2.02" height="2.02"/><rect class="cls-15" x="322.23" y="162.54" width="2.02" height="2.02"/><rect class="cls-16" x="322.59" y="162.9" width="2.02" height="2.02"/><path class="cls-6" d="M467.67,53.08v47.86c-27.57,20.9-64,33.6-103.9,33.6-40.56,0-77.51-13.11-105.23-34.61V53.08a1.79,1.79,0,0,1,1.8-1.8H465.87A1.79,1.79,0,0,1,467.67,53.08Z"/><path class="cls-18" d="M444.41,178.76A18.17,18.17,0,0,1,428,196.16a681.06,681.06,0,0,1-130.31,0,18.18,18.18,0,0,1-15.49-12.41,17.58,17.58,0,0,0,6.16,1.75,680.35,680.35,0,0,0,130.32,0,18.18,18.18,0,0,0,16.38-17.4q1.68-42.69,0-84.53a17.56,17.56,0,0,0-.78-4.55,17.66,17.66,0,0,1,10.11,15.21Q446.13,136.05,444.41,178.76Z"/><rect class="cls-19" x="317.15" y="348.99" width="91.91" height="94.57" rx="9.22"/><path class="cls-20" d="M409.06,361.27v10.66a12.28,12.28,0,0,0-12.28-12.28H329.43a12.28,12.28,0,0,0-12.28,12.28V361.27A12.28,12.28,0,0,1,329.43,349h67.35A12.28,12.28,0,0,1,409.06,361.27Z"/><rect class="cls-8" x="227.91" y="242.44" width="270.4" height="45.16" rx="1.35"/><path class="cls-21" d="M409.06,394.33v37a12.28,12.28,0,0,1-12.28,12.28H340.42C370,430.91,393.64,414.93,409.06,394.33Z"/><rect class="cls-5" x="480.99" y="242.3" width="17.32" height="50.61" rx="0.5"/><rect class="cls-22" x="480.99" y="239.63" width="17.32" height="18.78" rx="6.3"/><rect class="cls-8" x="238.56" y="2" width="249.09" height="55.28" rx="1.35"/><rect class="cls-8" x="238.56" y="2" width="249.09" height="55.28" rx="1.8"/><rect class="cls-23" x="267.87" y="11.99" width="189.15" height="35.3" rx="4.86"/><rect class="cls-23" x="267.87" y="11.99" width="189.15" height="35.3" rx="4.86"/><rect class="cls-5" x="238.56" y="2" width="11.99" height="61.94" rx="0.5"/><rect class="cls-5" x="238.56" y="2" width="11.99" height="61.94" rx="0.67"/><path class="cls-6" d="M250.55,46V63.27a.66.66,0,0,1-.67.67H239.23a.66.66,0,0,1-.67-.67V46a6,6,0,1,1,12,0Z"/><rect class="cls-4" x="238.56" y="2" width="11.99" height="61.94" rx="0.5"/><rect class="cls-5" x="475.66" y="2" width="11.99" height="61.94" rx="0.5"/><path class="cls-8" d="M241.58,225.11H484.64a.32.32,0,0,1,.27.16l10.42,16.66a.32.32,0,0,1-.27.5H229.83a.33.33,0,0,1-.28-.5l11.75-16.66A.32.32,0,0,1,241.58,225.11Z"/><path class="cls-24" d="M496.66,242.43H481l-11.26-18.6,0-.05h15.64L497.92,240A1.54,1.54,0,0,1,496.66,242.43Z"/><path class="cls-24" d="M230.18,242.43h13.71l13.26-18.65h-15.7L228.92,240A1.54,1.54,0,0,0,230.18,242.43Z"/><rect class="cls-5" x="227.91" y="242.44" width="17.32" height="50.61" rx="0.5"/><path class="cls-25" d="M395.74,12c-66.6,1.33-94.41,19.65-99.09,35.3H274.34a6.47,6.47,0,0,1-6.47-6.47V18.46A6.47,6.47,0,0,1,274.34,12Z"/><path class="cls-25" d="M422.75,76.57c-91.23,12.9-133.12,43.86-142.67,71.58q-.49-27.32,1.32-54.27A17.64,17.64,0,0,1,296.6,77.7C339.36,71.55,381.44,71,422.75,76.57Z"/><path class="cls-18" d="M457,18.46V40.82a6.47,6.47,0,0,1-6.47,6.47H274.34A6.49,6.49,0,0,1,268,42H443.88a6.47,6.47,0,0,0,6.47-6.47V13.14a7.23,7.23,0,0,0-.1-1.15h.29A6.47,6.47,0,0,1,457,18.46Z"/><rect class="cls-4" x="267.87" y="11.99" width="189.15" height="35.3" rx="4.86"/><path class="cls-4" d="M297.72,196.11a679.44,679.44,0,0,0,130.31,0,18.2,18.2,0,0,0,16.39-17.4q1.66-42.7,0-84.52a17.71,17.71,0,0,0-15.1-16.74c-43.42-6.52-87.67-6.28-132.7.2A17.66,17.66,0,0,0,281.4,93.88a643,643,0,0,0,0,85.35A18.15,18.15,0,0,0,297.72,196.11Z"/><rect class="cls-5" x="475.66" y="2" width="11.99" height="61.94" rx="0.67"/><path class="cls-6" d="M487.65,46V63.27a.66.66,0,0,1-.66.67H476.33a.66.66,0,0,1-.67-.67V46a6,6,0,1,1,12,0Z"/><rect class="cls-4" x="475.66" y="2" width="11.99" height="61.94" rx="0.5"/><circle cx="453.68" cy="209.8" r="2"/><path class="cls-26" d="M478.33,284.39v-3.76a4.79,4.79,0,0,0-4.67-4.9H252.55a4.79,4.79,0,0,0-4.66,4.9v3.76Z"/><circle cx="272.53" cy="209.8" r="2"/><circle cx="467" cy="276.4" r="2"/><circle cx="259.21" cy="276.4" r="2"/><circle cx="453.68" cy="71.27" r="2"/><circle cx="272.53" cy="71.27" r="2"/><circle class="cls-27" cx="431.71" cy="220.79" r="6.33"/><path class="cls-26" d="M467.67,227.78v3.75a4.79,4.79,0,0,1-4.66,4.91H263.21a4.8,4.8,0,0,1-4.67-4.91v-3.75Z"/><circle class="cls-28" cx="295.84" cy="219.45" r="6.33"/><line class="cls-29" x1="431.71" y1="227.11" x2="431.71" y2="244.24"/><line class="cls-29" x1="295.84" y1="227.11" x2="295.84" y2="244.24"/><path class="cls-30" d="M317.9,233.11h14.48a3.41,3.41,0,0,1,3.41,3.41v7.24a0,0,0,0,1,0,0H314.49a0,0,0,0,1,0,0v-7.24A3.41,3.41,0,0,1,317.9,233.11Z"/><path class="cls-31" d="M395.16,233.11h14.48a3.41,3.41,0,0,1,3.41,3.41v7.24a0,0,0,0,1,0,0H391.75a0,0,0,0,1,0,0v-7.24A3.41,3.41,0,0,1,395.16,233.11Z"/><rect class="cls-4" x="480.99" y="242.3" width="17.32" height="50.61" rx="0.5"/><rect class="cls-22" x="227.91" y="239.63" width="17.32" height="18.78" rx="6.5"/><rect class="cls-4" x="227.91" y="242.3" width="17.32" height="50.61" rx="0.5"/><rect class="cls-32" x="247.89" y="245.09" width="230.44" height="6.66"/><circle cx="467" cy="253.75" r="2"/><circle cx="396.41" cy="433.58" r="2"/><circle cx="396.41" cy="360.32" r="2"/><circle cx="328.47" cy="433.58" r="2"/><circle cx="328.47" cy="360.32" r="2"/><circle cx="259.21" cy="253.75" r="2"/><g class="cls-33"><line class="cls-34" x1="378.04" y1="250.42" x2="378.04" y2="281.06"/><line class="cls-34" x1="384.42" y1="250.42" x2="384.42" y2="281.06"/><line class="cls-34" x1="339.8" y1="250.42" x2="339.8" y2="281.06"/><line class="cls-34" x1="358.92" y1="250.42" x2="358.92" y2="281.06"/><line class="cls-34" x1="371.67" y1="250.42" x2="371.67" y2="281.06"/><line class="cls-34" x1="365.29" y1="250.42" x2="365.29" y2="281.06"/><line class="cls-34" x1="346.17" y1="250.42" x2="346.17" y2="281.06"/><line class="cls-34" x1="352.55" y1="250.42" x2="352.55" y2="281.06"/></g><rect class="cls-35" x="370.8" y="362.54" width="15.98" height="46.62" rx="1.8"/><line class="cls-36" x1="378.79" y1="366.96" x2="378.79" y2="382.1"/><line class="cls-36" x1="381.46" y1="389.18" x2="376.13" y2="389.18"/><circle cx="378.79" cy="395.84" r="2.66"/><rect class="cls-31" x="370.8" y="415.82" width="15.98" height="9.32" rx="2.14"/><rect class="cls-35" x="338.83" y="362.54" width="15.98" height="46.62" rx="1.8"/><line class="cls-36" x1="346.82" y1="366.96" x2="346.82" y2="382.1"/><line class="cls-36" x1="349.49" y1="389.18" x2="344.16" y2="389.18"/><circle cx="346.82" cy="395.84" r="2.66"/><rect class="cls-30" x="338.83" y="415.82" width="15.98" height="9.32" rx="2.14"/><rect class="cls-4" x="317.15" y="348.99" width="91.91" height="94.57" rx="9.22"/><line class="cls-37" x1="328.47" y1="456.63" x2="397.07" y2="456.63"/><line class="cls-38" x1="328.47" y1="460.63" x2="397.07" y2="460.63"/><path class="cls-39" d="M397.07,460.88h-68.6a2.67,2.67,0,0,1,0-5.33h68.6a2.67,2.67,0,1,1,0,5.33Z"/><path class="cls-39" d="M397.07,474.2h-68.6a2.66,2.66,0,0,1,0-5.32h68.6a2.66,2.66,0,1,1,0,5.32Z"/><path class="cls-39" d="M397.07,487.52h-68.6a2.66,2.66,0,0,1,0-5.32h68.6a2.66,2.66,0,1,1,0,5.32Z"/><line class="cls-37" x1="328.47" y1="469.95" x2="397.07" y2="469.95"/><line class="cls-37" x1="328.47" y1="483.27" x2="397.07" y2="483.27"/><line class="cls-40" x1="291.84" y1="511.5" x2="291.84" y2="484.86"/><line class="cls-40" x1="432.37" y1="288.39" x2="432.37" y2="301.71"/><line class="cls-40" x1="432.37" y1="307.03" x2="432.37" y2="311.03"/><line class="cls-40" x1="283.06" y1="511.5" x2="283.06" y2="498.18"/><rect class="cls-19" x="617.52" y="373.14" width="51.95" height="51.95" rx="4.15"/><rect class="cls-19" x="633.51" y="389.12" width="19.98" height="19.98" rx="1.1"/><circle cx="660.81" cy="416.43" r="2"/><circle cx="626.18" cy="416.43" r="2"/><circle cx="660.81" cy="381.79" r="2"/><circle cx="626.18" cy="381.79" r="2"/><rect class="cls-41" x="646.83" y="397.28" width="1.33" height="3.66" rx="0.5" transform="translate(1294.99 798.22) rotate(180)"/><rect class="cls-41" x="638.84" y="397.28" width="1.33" height="3.66" rx="0.5" transform="translate(1279 798.22) rotate(180)"/><rect class="cls-10" x="630.18" y="495.1" width="23.98" height="7.49" rx="1.68"/><rect class="cls-4" x="636.84" y="490.19" width="10.66" height="4.41" rx="1.66"/><rect class="cls-41" x="641.5" y="479.53" width="1.33" height="8.41" rx="0.5" transform="translate(1284.33 967.47) rotate(180)"/><line class="cls-42" x1="481.53" y1="511.5" x2="671.47" y2="511.5"/><line class="cls-42" x1="697.32" y1="511.5" x2="727.42" y2="511.5"/><line class="cls-42" x1="681.33" y1="511.5" x2="688.79" y2="511.5"/><line class="cls-42" x1="17.98" y1="511.5" x2="48.08" y2="511.5"/><line class="cls-42" x1="2" y1="511.5" x2="9.45" y2="511.5"/><line class="cls-42" x1="59.28" y1="511.5" x2="249.22" y2="511.5"/><g class="cls-43"><rect class="cls-4" x="81.38" y="54.62" width="62.61" height="27.97" rx="0.64"/><rect class="cls-4" x="46.75" y="82.59" width="62.61" height="27.97" rx="0.64"/><rect class="cls-4" x="109.36" y="82.59" width="62.61" height="27.97" rx="0.64"/></g><g class="cls-43"><rect class="cls-4" x="590.22" y="227.78" width="62.61" height="27.97" rx="0.64"/><rect class="cls-4" x="555.58" y="255.75" width="62.61" height="27.97" rx="0.64"/><rect class="cls-4" x="618.19" y="255.75" width="62.61" height="27.97" rx="0.64"/></g><g class="cls-43"><rect class="cls-4" x="81.38" y="227.78" width="62.61" height="27.97" rx="0.64"/><rect class="cls-4" x="109.36" y="255.75" width="62.61" height="27.97" rx="0.64"/></g><g class="cls-43"><rect class="cls-4" x="555.58" y="57.28" width="62.61" height="27.97" rx="0.64" transform="translate(1173.77 142.53) rotate(180)"/><rect class="cls-4" x="527.61" y="85.25" width="62.61" height="27.97" rx="0.64" transform="translate(1117.83 198.48) rotate(180)"/></g><polygon class="cls-30" points="654.27 404 691.01 404 691.01 385.94 720.66 356.28 679.77 379.21 676.22 393.94 654.27 404"/><polygon class="cls-30" points="635.66 393 598.93 393 591.93 380 569.27 345.28 606.93 380 611.93 371 635.66 393"/></g></g></svg>