<svg xmlns="http://www.w3.org/2000/svg" xmlns:xlink="http://www.w3.org/1999/xlink" width="110" height="32" viewBox="0 0 110 32">
  <defs>
    <linearGradient id="linear-gradient" y1="0.5" x2="1" y2="0.548" gradientUnits="objectBoundingBox">
      <stop offset="0" stop-color="#353754"/>
      <stop offset="1" stop-color="#0a0a0f"/>
    </linearGradient>
    <linearGradient id="linear-gradient-2" x1="0.5" x2="0.5" y2="1" gradientUnits="objectBoundingBox">
      <stop offset="0" stop-color="#353754"/>
      <stop offset="1" stop-color="#27283b"/>
    </linearGradient>
    <linearGradient id="linear-gradient-3" x1="0.5" x2="0.5" y2="1" gradientUnits="objectBoundingBox">
      <stop offset="0" stop-color="#d3e843"/>
      <stop offset="1" stop-color="#8ea837"/>
    </linearGradient>
    <linearGradient id="linear-gradient-4" x1="0.5" x2="0.5" y2="1" gradientUnits="objectBoundingBox">
      <stop offset="0" stop-color="#ff706a"/>
      <stop offset="1" stop-color="#e54742"/>
    </linearGradient>
    <linearGradient id="linear-gradient-5" x1="0.5" x2="0.5" y2="1" gradientUnits="objectBoundingBox">
      <stop offset="0" stop-color="#00c6f6"/>
      <stop offset="1" stop-color="#0379b7"/>
    </linearGradient>
    <linearGradient id="linear-gradient-6" x1="0.5" x2="0.5" y2="1" gradientUnits="objectBoundingBox">
      <stop offset="0" stop-color="#ffd459"/>
      <stop offset="1" stop-color="#c28d00"/>
    </linearGradient>
  </defs>
  <g id="Group_100" data-name="Group 100" transform="translate(-6654 -1394)">
    <path id="Brand_Name" data-name="Brand Name" d="M-2597.74-1478.944v-4.043h1.065a1.982,1.982,0,0,0,1.459-.415,2.509,2.509,0,0,0,.379-1.555v-4.274h3.7v4.274a8.6,8.6,0,0,1-.353,2.506,4.718,4.718,0,0,1-.959,1.834,4.538,4.538,0,0,1-1.869,1.277,6.571,6.571,0,0,1-2.356.4Zm-50.26-.007v-4.036h1.072a2,2,0,0,0,1.459-.415,2.508,2.508,0,0,0,.379-1.555v-4.274h3.7v2.085a.272.272,0,0,0,.02.088.18.18,0,0,0,.073.09.274.274,0,0,0,.164.041h.336a1.919,1.919,0,0,0,.484-.041.365.365,0,0,0,.178-.09,2.332,2.332,0,0,0,.329-.818c.04-.121.082-.255.124-.4a4.911,4.911,0,0,1,.278-.654,4.558,4.558,0,0,1,.691-1,3.666,3.666,0,0,1,2.773-1.211,3.575,3.575,0,0,1,1.459.282,3.586,3.586,0,0,1,1.094.737,4.33,4.33,0,0,1,.755,1,4.913,4.913,0,0,1,.437,1.08,3.762,3.762,0,0,1,.143.961.363.363,0,0,0,.007.079.09.09,0,0,0,.045.058.269.269,0,0,0,.13.023h3.217v-2.3h3.7v2.3h3.508a5.087,5.087,0,0,0,.933-.081q-.27-.358-.619-.823l-1.862-2.241.6-2.6,6.448-3.167,1.605,3.319-4.209,2.094.788,1.026c.316.41.621.811.911,1.2a4.391,4.391,0,0,0,1.03,1.14,1.034,1.034,0,0,0,.422.116c.172.014.423.023.753.023h4.334c.174,0,.281-.032.319-.1a.51.51,0,0,0,.06-.271v-1.939h3.515v2.371a.26.26,0,0,0,.082.208.273.273,0,0,0,.189.069.3.3,0,0,0,.186-.062.251.251,0,0,0,.083-.215v-2.371h3.508v2.371a.28.28,0,0,0,.315.276.335.335,0,0,0,.227-.076.279.279,0,0,0,.094-.2c-.069-.758-.114-1.345-.139-1.759l-.043-.612,3.4-.919.072.357c.049.239.1.524.167.86s.121.657.172.964.085.534.1.686c0,.1.007.2.007.305a5.26,5.26,0,0,1-.263,1.652,3.4,3.4,0,0,1-.684,1.258,3.913,3.913,0,0,1-2.817,1.2h-.007a5.659,5.659,0,0,1-1.262-.143,4,4,0,0,1-1.123-.426,3.626,3.626,0,0,1-1.934.569,4.074,4.074,0,0,1-1.218-.157,3.769,3.769,0,0,1-.861-.383,1.827,1.827,0,0,1-.62.372,2.732,2.732,0,0,1-.693.143q-.344.024-1.86.025h-3.3a9.889,9.889,0,0,1-1.6-.121,4.389,4.389,0,0,1-1.419-.491l-.007-.009a5.378,5.378,0,0,1-.621-.437,4.03,4.03,0,0,1-.808.555,4.57,4.57,0,0,1-2.124.5h-3.537a4.2,4.2,0,0,1-2.037-.5,5.108,5.108,0,0,1-.5.218,5.277,5.277,0,0,1-1.781.285h-2.977a1.566,1.566,0,0,1-.7-.164,3.439,3.439,0,0,1-.591-.361,3.008,3.008,0,0,1-1.043.562,2.809,2.809,0,0,1-.672.132h-.022a2.084,2.084,0,0,1-.233.015,4.346,4.346,0,0,1-1.269-.182,6.858,6.858,0,0,1-1.08-.423c-.322-.161-.59-.3-.811-.431a2.907,2.907,0,0,1-1.056.636,3.516,3.516,0,0,1-1.116.218h-.554a3.555,3.555,0,0,1-.388-.022,8.9,8.9,0,0,1-.415,1.141,4.882,4.882,0,0,1-.679,1.119l-.007.007a4.576,4.576,0,0,1-1.875,1.277,6.6,6.6,0,0,1-2.356.4Zm11.588-8.681a2.4,2.4,0,0,0-.3.58,4.861,4.861,0,0,0-.157.522,2.955,2.955,0,0,0,.486.329,5.722,5.722,0,0,0,.6.287,1.335,1.335,0,0,0,.446.121.124.124,0,0,0,.065-.014.714.714,0,0,0,.235-.387,1.4,1.4,0,0,0,.072-.453,1.55,1.55,0,0,0-.014-.2,1.434,1.434,0,0,0-.168-.471,1.383,1.383,0,0,0-.339-.4.727.727,0,0,0-.469-.168A.548.548,0,0,0-2636.412-1487.633Zm8.5,6.8,1.6-1.6,1.6,1.6-1.6,1.605Zm-3.421,0,1.6-1.6,1.6,1.6-1.6,1.605Zm46.153-2.035a4.065,4.065,0,0,1-1.186-.161,3.72,3.72,0,0,1-.9-.4,3.642,3.642,0,0,1-.619-.482,3.488,3.488,0,0,1-.493-.619,3.665,3.665,0,0,1-.408-.912,4.215,4.215,0,0,1-.164-1.24v-1.69q0-1.243,0-2.636t0-3.436h3.7v7.412a.113.113,0,0,0,.021.076.089.089,0,0,0,.053.031l.036,0h1.19c-.011-.142-.014-.278-.014-.41a5.471,5.471,0,0,1,.377-2.16,3.9,3.9,0,0,1,.979-1.4,3.762,3.762,0,0,1,1.27-.73,4.087,4.087,0,0,1,1.233-.211,3.955,3.955,0,0,1,2.947,1.291l.007.007h.007a4.7,4.7,0,0,1,1.147,3.2v.518a3.74,3.74,0,0,1-.561,2.027,3.839,3.839,0,0,1-1.636,1.409,5.854,5.854,0,0,1-2.538.5h-3.742v.007Zm4.781-5.406a.841.841,0,0,0-.361.24.713.713,0,0,0-.161.5.715.715,0,0,0,.164.562.776.776,0,0,0,.492.132c.087,0,.241,0,.461.007h.583v-.7a.93.93,0,0,0-.074-.332.776.776,0,0,0-.259-.329.865.865,0,0,0-.529-.141A1.106,1.106,0,0,0-2580.4-1488.275Zm-1.39-5.785,1.7-1.708,1.706,1.708-1.706,1.7Zm-40.469-.393,5.391-2.546.379.816-5.864,2.764Z" transform="translate(9302 2898)" opacity="0.9" fill="url(#linear-gradient)"/>
    <g id="Logo" transform="translate(5434 1378)">
      <path id="Polygon_1" data-name="Polygon 1" d="M20.518,0a6,6,0,0,1,5.209,3.023l4.571,8a6,6,0,0,1,0,5.954l-4.571,8A6,6,0,0,1,20.518,28H11.482a6,6,0,0,1-5.209-3.023l-4.571-8a6,6,0,0,1,0-5.954l4.571-8A6,6,0,0,1,11.482,0Z" transform="translate(1330 16) rotate(90)" fill="url(#linear-gradient-2)"/>
      <g id="Group_87" data-name="Group 87" transform="translate(408.075 -921.887) rotate(45)">
        <rect id="Rectangle_13" data-name="Rectangle 13" width="6" height="6" rx="2" transform="translate(1318 25)" fill="url(#linear-gradient-3)"/>
        <rect id="Rectangle_14" data-name="Rectangle 14" width="6" height="6" rx="2" transform="translate(1309 25)" fill="url(#linear-gradient-4)"/>
        <rect id="Rectangle_15" data-name="Rectangle 15" width="6" height="6" rx="2" transform="translate(1309 34)" fill="url(#linear-gradient-5)"/>
        <rect id="Rectangle_16" data-name="Rectangle 16" width="6" height="6" rx="2" transform="translate(1318 34)" fill="url(#linear-gradient-6)"/>
      </g>
    </g>
  </g>
</svg>
