<svg xmlns="http://www.w3.org/2000/svg" viewBox="0 0 155.182 28"><path fill="#7666ff" d="M141.182 27.999a14.019 14.019 0 0 1-14-14h4.936a9.022 9.022 0 0 0 2.662 6.4 8.987 8.987 0 0 0 6.4 2.654 9.074 9.074 0 0 0 9.066-9.054 9.073 9.073 0 0 0-9.066-9.055V-.001a14.015 14.015 0 0 1 14 14 14.019 14.019 0 0 1-13.998 14Zm-7.59-18.945h-5.51A14.071 14.071 0 0 1 136.248.9v5.51a9.209 9.209 0 0 0-2.656 2.644Z"/><path fill="#111827" d="M0 25.101a4.129 4.129 0 0 0 .527-.024 8.389 8.389 0 0 0 4.587-1.533A4.376 4.376 0 0 0 6.563 20a12.126 12.126 0 0 0-.336-2.64q-.335-1.485-.982-3.593l2.826-1.2.6 2.347a8.531 8.531 0 0 0 .719 2.1 2.059 2.059 0 0 0 1.041.946 5.347 5.347 0 0 0 1.9.263 1.57 1.57 0 0 1 1.162.5 1.655 1.655 0 0 1 .491 1.2 1.7 1.7 0 0 1-.491 1.21 1.553 1.553 0 0 1-1.162.515 5.075 5.075 0 0 1-3.111-.858 8.068 8.068 0 0 1-1.629 4.431Q5.485 27.86.862 27.86q-.5 0-.766-.024Zm10.682-5.174a1.677 1.677 0 0 1 .479-1.2 1.558 1.558 0 0 1 1.174-.5 3.642 3.642 0 0 0 1.569-.311 3.892 3.892 0 0 0 1.281-1.056 16.676 16.676 0 0 0 1.435-2.106 13.16 13.16 0 0 1 2.491-3.21 4.164 4.164 0 0 1 2.8-1.006 3.489 3.489 0 0 1 2.709 1.234 7.087 7.087 0 0 1 1.533 3.413 5.689 5.689 0 0 0 .695 1.9 2.169 2.169 0 0 0 1.126.9 5.9 5.9 0 0 0 1.868.24 1.57 1.57 0 0 1 1.162.5 1.655 1.655 0 0 1 .491 1.2 1.7 1.7 0 0 1-.491 1.21 1.553 1.553 0 0 1-1.162.515 5.825 5.825 0 0 1-2.383-.443 4.066 4.066 0 0 1-1.665-1.377 4.153 4.153 0 0 1-1.365 1.9 3.473 3.473 0 0 1-2.132.659 5.535 5.535 0 0 1-2.97-.862 7.11 7.11 0 0 1-2.323-2.4 6.835 6.835 0 0 1-1.974 1.855 5.131 5.131 0 0 1-2.695.671 1.553 1.553 0 0 1-1.162-.515 1.7 1.7 0 0 1-.491-1.21Zm7.856-3.353a6.275 6.275 0 0 0 1.761 1.737 3.741 3.741 0 0 0 2.048.659 1.278 1.278 0 0 0 1.1-.455 2.344 2.344 0 0 0 .335-1.389 5.332 5.332 0 0 0-.479-2.4 1.567 1.567 0 0 0-1.483-.954 2.507 2.507 0 0 0-1.581.587 8.231 8.231 0 0 0-1.701 2.215Zm21.916 1.653a1.57 1.57 0 0 1 1.166.503 1.655 1.655 0 0 1 .491 1.2 1.7 1.7 0 0 1-.491 1.21 1.553 1.553 0 0 1-1.162.515 10.357 10.357 0 0 1-3.238-.434 4.628 4.628 0 0 1-2.083-1.341 7.229 7.229 0 0 1-2.417 1.317 9.174 9.174 0 0 1-2.874.455 1.553 1.553 0 0 1-1.162-.515 1.7 1.7 0 0 1-.491-1.21 1.677 1.677 0 0 1 .477-1.197 1.558 1.558 0 0 1 1.174-.5 7.375 7.375 0 0 0 4.168-.958 14.184 14.184 0 0 1-.192-1.991l-.048-3.186 2.419-.24.216 3.042a5.83 5.83 0 0 0 .431 2.072 1.926 1.926 0 0 0 1.15.97 7.905 7.905 0 0 0 2.466.288Zm-5.126 5.509 1.892 1.677v.1l-1.653 1.868h-.12l-1.527-1.37-1.629 1.8h-.1l-1.916-1.7v-.1l1.677-1.844h.1l1.533 1.341 1.629-1.772Zm3.473-3.808a1.677 1.677 0 0 1 .479-1.2 1.558 1.558 0 0 1 1.174-.5h1.389a13.714 13.714 0 0 0 3.677-.408q1.425-.407 1.5-1.126a.964.964 0 0 0 .024-.263 4.8 4.8 0 0 0-1.6-2.9 20.18 20.18 0 0 0-5.324-3.663l.287-3.353 9.892-3.257.192 3.138-6.515 2.3a17.859 17.859 0 0 1 4.635 4.12 6.5 6.5 0 0 1 1.353 3.736 4.131 4.131 0 0 1-.024.527 3.794 3.794 0 0 1-1.257 2.431 7.317 7.317 0 0 1-2.97 1.593 14.587 14.587 0 0 1-4.156.551h-1.1a1.553 1.553 0 0 1-1.162-.515 1.7 1.7 0 0 1-.494-1.211Zm1.892-16.982L49.747 0l.144 1.844-9.389 3.066Zm46.658 13.509a5.987 5.987 0 0 1-1.018 3.916 3.767 3.767 0 0 1-3.078 1.257 5.077 5.077 0 0 1-1.976-.4 5.571 5.571 0 0 1-1.736-1.162 4.759 4.759 0 0 1-1.844 1.162 7.119 7.119 0 0 1-2.419.4 5.128 5.128 0 0 1-1.916-.335l-.024.335a5.442 5.442 0 0 1-1.1 3.389 6.923 6.923 0 0 1-3.15 2.227 13.086 13.086 0 0 1-4.778.754 7.462 7.462 0 0 1-3.492-.753 5.131 5.131 0 0 1-2.192-2.108 6.393 6.393 0 0 1-.743-3.126 14.381 14.381 0 0 1 .461-3.461 35.3 35.3 0 0 1 1.365-4.18l2.3.862a21.733 21.733 0 0 0-1.317 6.515 2.518 2.518 0 0 0 .934 2.072 4.717 4.717 0 0 0 2.97.754 11.706 11.706 0 0 0 2.754-.335 6.006 6.006 0 0 0 2.323-1.066 2.237 2.237 0 0 0 .934-1.832 18.574 18.574 0 0 0-.407-3.2q-.407-2.12-.982-4.323l2.707-1.126q.647 2.8.934 4.239a1.38 1.38 0 0 0 .759 1.022 3.465 3.465 0 0 0 1.473.275 5.179 5.179 0 0 0 1.727-.275 2.278 2.278 0 0 0 1.138-.778 2.349 2.349 0 0 0 .383-.683 4.993 4.993 0 0 0 .192-1.042q.072-.695.192-2.275l2.275.1-.024 1.006q-.048 2.4-.168 3.257a4.807 4.807 0 0 0 1.222.5 4.794 4.794 0 0 0 1.2.168 1.648 1.648 0 0 0 1.127-.325 1.374 1.374 0 0 0 .363-1.066 34.043 34.043 0 0 0-.814-4.934l2.8-.91a33.6 33.6 0 0 1 .645 5.485Zm-1.581 8.574a8.443 8.443 0 0 0 4.982-1.341A4.411 4.411 0 0 0 92.333 20a11.212 11.212 0 0 0-.359-2.587q-.359-1.485-1.078-3.569l2.778-1.269a38.68 38.68 0 0 1 1.054 3.868 15.332 15.332 0 0 1 .359 3.126 8.267 8.267 0 0 1-2.311 6.263q-2.311 2.215-6.91 2.028Zm17.341-3.377q-2.922 0-4.156-1.509a7.31 7.31 0 0 1-1.257-4.622l-.119-11.329 2.85-.311.024 11.4a5.277 5.277 0 0 0 .251 1.856 1.452 1.452 0 0 0 .816.863 4.4 4.4 0 0 0 1.591.227 1.57 1.57 0 0 1 1.162.5 1.655 1.655 0 0 1 .491 1.2 1.7 1.7 0 0 1-.491 1.21 1.553 1.553 0 0 1-1.162.515Zm-1.6-1.725a1.655 1.655 0 0 1 .487-1.197 1.6 1.6 0 0 1 1.186-.5q2.73 0 4.695-.072a10.054 10.054 0 0 0 2.874-.407 3.481 3.481 0 0 0 1.054-.467 1.242 1.242 0 0 0 .455-.635 4.5 4.5 0 0 0 .144-1.126 8.812 8.812 0 0 1-3.9.766 4.062 4.062 0 0 1-2.946-.886 3.946 3.946 0 0 1-.886-2.874 8.729 8.729 0 0 1 1.257-4.9 4.064 4.064 0 0 1 3.6-1.9 4.553 4.553 0 0 1 2.91 1.018 6.662 6.662 0 0 1 2.012 2.97 13.148 13.148 0 0 1 .731 4.611 9.261 9.261 0 0 1-.815 4.282 5.038 5.038 0 0 1-3.138 2.3 13.439 13.439 0 0 1-3.293.611q-1.856.132-4.754.132a1.591 1.591 0 0 1-1.174-.516 1.675 1.675 0 0 1-.503-1.209Zm5.82-8.024a1.208 1.208 0 0 0 .431 1.066 2.778 2.778 0 0 0 1.509.3 9.525 9.525 0 0 0 2.97-.431 7.265 7.265 0 0 0-.934-2.946 2.092 2.092 0 0 0-1.848-1.032 1.72 1.72 0 0 0-1.641.9 4.406 4.406 0 0 0-.491 2.144Zm.048-9.82v-.12l1.725-1.916h.12l1.964 1.748v.12l-1.725 1.916h-.12Z"/></svg>